# xmcd CD database file
#
# Track frame offsets:
#	150
#	11540
#	36498
#	48260
#	60855
#	72281
#	83658
#	94999
#	108373
#	123558
#	134898
#	146770
#	157136
#	169886
#	182612
#	197078
#	206961
#
# Disc length: 2889 seconds
#
# Revision: 0
# Processed by: cddbd v1.5.2PL0 Copyright (c) Steve Scherf et al.
# Submitted via: CDex 1.51
#
DISCID=fe0b4711
DTITLE=Various Artist - Yéyé French Pop 60's [CD1)
DYEAR=2009
DGENRE=60's
TTITLE0=France Gall - Poupée de cire, poupée de son
TTITLE1=Claude François - Eloïse
TTITLE2=Eileen - Ces bottes sont faites pour marcher
TTITLE3=Frank Alamo - Heureux tous les deux
TTITLE4=Ronnie Bird - Chante
TTITLE5=Brigitte Bardot - Harley Davidson
TTITLE6=Stone - Le nénuphar
TTITLE7=Charlotte Leslie - Les filles c'est fait...
TTITLE8=Nino Ferrer - Je veux être noir
TTITLE9=Nicoletta - Vis ta vie
TTITLE10=Annie Philippe - C'est la mode
TTITLE11=Serge Gainsbourg - Qui est "in" qui est "out"
TTITLE12=Monty - J'ai traversé l'enfer
TTITLE13=Johnny Hallyday - À tout casser
TTITLE14=Eddy Mitchell - Et s'il n'en reste qu'un
TTITLE15=France Gall - Laisse tomber les filles
TTITLE16=Serge Gainsbourg avec Brigitte Bardot - Comic Strip
EXTD=YEAR: 2009
EXTT0=
EXTT1=
EXTT2=
EXTT3=
EXTT4=
EXTT5=
EXTT6=
EXTT7=
EXTT8=
EXTT9=
EXTT10=
EXTT11=
EXTT12=
EXTT13=
EXTT14=
EXTT15=
EXTT16=
PLAYORDER=
